<?xml version="1.0" standalone="no"?>
<!DOCTYPE svg PUBLIC "-//W3C//DTD SVG 20010904//EN"
 "http://www.w3.org/TR/2001/REC-SVG-20010904/DTD/svg10.dtd">
<svg version="1.0" xmlns="http://www.w3.org/2000/svg"
 width="481.000000pt" height="427.000000pt" viewBox="0 0 481.000000 427.000000"
 preserveAspectRatio="xMidYMid meet">

<g transform="translate(0.000000,427.000000) scale(0.100000,-0.100000)"
fill="#000000" stroke="none">
<path d="M2315 3770 c-4 -6 -2 -17 4 -24 15 -18 16 -329 1 -334 -5 -2 -10 -10
-10 -18 0 -10 13 -14 45 -14 33 0 45 4 45 14 0 8 -4 18 -10 21 -5 3 -10 45 -9
93 l0 87 55 -107 c47 -94 57 -108 79 -108 l25 0 0 178 c0 117 4 182 11 189 19
19 0 33 -42 33 -27 0 -39 -4 -39 -14 0 -8 5 -18 10 -21 6 -3 10 -39 9 -78 l0
-72 -46 93 -45 92 -38 0 c-21 0 -42 -5 -45 -10z"/>
<path d="M2172 3604 c-248 -54 -457 -169 -637 -349 -253 -252 -378 -554 -378
-910 1 -275 88 -542 248 -756 61 -81 151 -177 158 -168 2 2 13 26 24 53 l21
50 -56 65 c-187 221 -282 477 -282 761 0 444 248 842 648 1044 84 42 226 91
295 101 l47 7 0 59 c0 66 5 64 -88 43z"/>
<path d="M2610 3562 l0 -57 110 -27 c513 -124 880 -595 880 -1128 0 -284 -95
-541 -282 -762 l-55 -64 21 -52 c11 -29 24 -52 28 -52 13 0 140 146 185 213
141 213 215 454 216 707 0 147 -14 248 -54 383 -102 344 -374 652 -702 796
-83 36 -225 79 -314 95 l-33 6 0 -58z"/>
<path d="M2421 3213 c-7 -15 -152 -350 -321 -743 -169 -393 -378 -879 -464
-1079 -87 -200 -155 -365 -153 -368 3 -2 217 116 477 262 260 146 473 265 475
265 1 0 215 -119 475 -265 260 -146 475 -263 477 -261 2 2 -123 298 -278 657
-154 360 -364 847 -465 1082 -101 236 -190 440 -197 453 l-13 25 -13 -28z m11
-1505 c-13 -13 -702 -427 -702 -422 0 4 674 1661 694 1704 8 19 12 -130 14
-624 1 -358 -2 -654 -6 -658z"/>
<path d="M975 2446 c-77 -44 -146 -85 -153 -90 -10 -6 33 -35 140 -97 l153
-88 3 89 c1 50 1 130 0 179 l-3 89 -140 -82z"/>
<path d="M3750 2345 l0 -176 58 33 c31 18 101 58 154 88 54 30 97 57 97 60 0
6 -277 164 -296 168 -10 3 -13 -33 -13 -173z"/>
<path d="M1390 866 l0 -156 35 0 35 0 0 84 c0 47 -5 97 -11 113 -22 58 5 10
50 -89 l47 -103 42 -3 42 -3 0 155 0 156 -36 0 -36 0 4 -112 c3 -86 1 -106 -7
-84 -5 17 -26 66 -45 110 l-36 81 -42 3 -42 3 0 -155z"/>
<path d="M2120 995 c0 -22 4 -25 35 -25 31 0 35 3 35 25 0 22 -4 25 -35 25
-31 0 -35 -3 -35 -25z"/>
<path d="M2535 1008 c-12 -37 -85 -285 -85 -291 0 -4 16 -7 35 -7 31 0 36 3
42 30 5 28 9 30 50 30 40 0 45 -3 54 -30 9 -24 17 -30 40 -30 34 0 38 20 15
91 -8 24 -27 83 -41 132 l-26 87 -40 0 c-23 0 -41 -5 -44 -12z m75 -185 c0 -2
-14 -3 -31 -3 -26 0 -30 3 -24 18 3 9 9 39 12 66 l6 50 18 -65 c10 -35 18 -65
19 -66z"/>
<path d="M2720 995 c0 -20 5 -25 25 -25 l25 0 0 -105 0 -105 -25 0 c-20 0 -25
-5 -25 -25 0 -25 1 -25 85 -25 84 0 85 0 85 25 0 20 -5 25 -25 25 l-25 0 0
105 0 105 25 0 c20 0 25 5 25 25 0 25 -1 25 -85 25 -84 0 -85 0 -85 -25z"/>
<path d="M2940 961 c0 -14 -6 -21 -20 -21 -15 0 -20 -7 -20 -25 0 -18 5 -25
20 -25 18 0 20 -7 20 -74 0 -66 3 -77 22 -90 12 -9 42 -16 65 -16 39 0 43 2
43 25 0 21 -5 25 -30 25 l-30 0 0 65 0 65 30 0 c25 0 30 4 30 25 0 22 -4 25
-34 25 -26 0 -33 4 -32 18 1 12 -8 18 -31 20 -28 3 -33 0 -33 -17z"/>
<path d="M1696 924 c-9 -8 -16 -26 -16 -40 0 -21 5 -24 35 -24 24 0 35 5 35
15 0 9 9 15 25 15 20 0 25 -5 25 -25 0 -23 -4 -25 -41 -25 -62 0 -79 -13 -79
-63 0 -24 5 -48 12 -55 16 -16 95 -16 101 1 4 10 6 10 6 0 1 -8 15 -13 36 -13
l35 0 0 98 c0 122 -7 132 -98 132 -42 0 -65 -5 -76 -16z m104 -144 c0 -15 -7
-20 -24 -20 -27 0 -41 14 -31 30 3 6 17 10 31 10 17 0 24 -5 24 -20z"/>
<path d="M1892 923 c3 -10 18 -62 34 -116 l29 -98 40 3 39 3 27 88 c45 145 44
137 6 137 l-34 0 -19 -80 -19 -80 -20 77 c-20 77 -21 78 -54 81 -28 3 -33 1
-29 -15z"/>
<path d="M2120 825 l0 -115 35 0 35 0 0 115 0 115 -35 0 -35 0 0 -115z"/>
<path d="M2258 929 c-15 -8 -18 -25 -18 -94 0 -73 3 -86 19 -95 27 -14 88 -13
94 3 3 6 6 -5 6 -25 1 -34 -2 -38 -24 -38 -14 0 -28 7 -31 15 -4 9 -19 15 -35
15 -24 0 -29 -4 -29 -24 0 -41 25 -56 94 -56 93 0 96 6 96 173 l0 137 -77 0
c-43 0 -86 -5 -95 -11z m102 -95 c0 -54 0 -55 -27 -52 -25 3 -28 8 -31 42 -4
52 3 66 33 66 24 0 25 -3 25 -56z"/>
<path d="M3121 921 c-14 -14 -18 -35 -20 -94 -3 -101 12 -117 102 -117 87 0
97 12 97 118 0 103 -8 112 -96 112 -49 0 -68 -4 -83 -19z m114 -96 l0 -60 -32
-3 -33 -3 0 66 0 66 33 -3 32 -3 0 -60z"/>
<path d="M3348 935 c-2 -2 -2 -53 0 -114 l3 -111 29 0 29 0 3 88 3 87 43 3
c37 3 42 6 42 27 0 23 -3 24 -74 23 -41 0 -76 -1 -78 -3z"/>
</g>
</svg>
